<mxfile host="Electron" agent="Mozilla/5.0 (Windows NT 10.0; Win64; x64) AppleWebKit/537.36 (KHTML, like Gecko) draw.io/26.0.16 Chrome/132.0.6834.196 Electron/34.2.0 Safari/537.36" version="26.0.16">
  <diagram name="Page-1" id="SdQwkNcICQ8Xd1JdBaRQ">
    <mxGraphModel dx="2886" dy="2085" grid="1" gridSize="10" guides="1" tooltips="1" connect="1" arrows="1" fold="1" page="1" pageScale="1" pageWidth="850" pageHeight="1100" math="0" shadow="0">
      <root>
        <mxCell id="0" />
        <mxCell id="1" parent="0" />
        <mxCell id="JYrcJPNF48qlftp7YfjU-39" value="" style="rounded=1;whiteSpace=wrap;html=1;fillColor=none;dashed=1;" parent="1" vertex="1">
          <mxGeometry x="-60" y="-40" width="990" height="680" as="geometry" />
        </mxCell>
        <mxCell id="JYrcJPNF48qlftp7YfjU-43" value="" style="rounded=1;whiteSpace=wrap;html=1;fillColor=none;dashed=1;" parent="1" vertex="1">
          <mxGeometry x="1007" y="-40" width="510" height="680" as="geometry" />
        </mxCell>
        <mxCell id="JYrcJPNF48qlftp7YfjU-13" value="crm_sales_details" style="swimlane;fontStyle=0;childLayout=stackLayout;horizontal=1;startSize=30;horizontalStack=0;resizeParent=1;resizeParentMax=0;resizeLast=0;collapsible=1;marginBottom=0;whiteSpace=wrap;html=1;rounded=1;fillColor=#dae8fc;strokeColor=#6c8ebf;fontSize=26;" parent="1" vertex="1">
          <mxGeometry x="7.5" y="201" width="370" height="110" as="geometry" />
        </mxCell>
        <mxCell id="JYrcJPNF48qlftp7YfjU-14" value="prd_key" style="text;strokeColor=none;fillColor=none;align=left;verticalAlign=middle;spacingLeft=4;spacingRight=4;overflow=hidden;points=[[0,0.5],[1,0.5]];portConstraint=eastwest;rotatable=0;whiteSpace=wrap;html=1;fontSize=26;" parent="JYrcJPNF48qlftp7YfjU-13" vertex="1">
          <mxGeometry y="30" width="370" height="40" as="geometry" />
        </mxCell>
        <mxCell id="JYrcJPNF48qlftp7YfjU-16" value="cst_id" style="text;strokeColor=none;fillColor=none;align=left;verticalAlign=middle;spacingLeft=4;spacingRight=4;overflow=hidden;points=[[0,0.5],[1,0.5]];portConstraint=eastwest;rotatable=0;whiteSpace=wrap;html=1;fontSize=26;" parent="JYrcJPNF48qlftp7YfjU-13" vertex="1">
          <mxGeometry y="70" width="370" height="40" as="geometry" />
        </mxCell>
        <mxCell id="JYrcJPNF48qlftp7YfjU-15" value="&lt;span style=&quot;font-size: 20px;&quot;&gt;Transactional Record about Sales &amp;amp; Orders&lt;/span&gt;" style="text;html=1;align=center;verticalAlign=middle;whiteSpace=wrap;rounded=0;" parent="1" vertex="1">
          <mxGeometry x="-20" y="171" width="425" height="30" as="geometry" />
        </mxCell>
        <mxCell id="JYrcJPNF48qlftp7YfjU-19" value="" style="group" parent="1" vertex="1" connectable="0">
          <mxGeometry x="497.5" y="291" width="370" height="100" as="geometry" />
        </mxCell>
        <mxCell id="JYrcJPNF48qlftp7YfjU-1" value="crm_cust_info" style="swimlane;fontStyle=0;childLayout=stackLayout;horizontal=1;startSize=30;horizontalStack=0;resizeParent=1;resizeParentMax=0;resizeLast=0;collapsible=1;marginBottom=0;whiteSpace=wrap;html=1;rounded=1;fillColor=#dae8fc;strokeColor=#6c8ebf;fontSize=26;" parent="JYrcJPNF48qlftp7YfjU-19" vertex="1">
          <mxGeometry y="30" width="370" height="110" as="geometry" />
        </mxCell>
        <mxCell id="JYrcJPNF48qlftp7YfjU-2" value="cst_id" style="text;strokeColor=none;fillColor=none;align=left;verticalAlign=middle;spacingLeft=4;spacingRight=4;overflow=hidden;points=[[0,0.5],[1,0.5]];portConstraint=eastwest;rotatable=0;whiteSpace=wrap;html=1;fontSize=26;" parent="JYrcJPNF48qlftp7YfjU-1" vertex="1">
          <mxGeometry y="30" width="370" height="40" as="geometry" />
        </mxCell>
        <mxCell id="JYrcJPNF48qlftp7YfjU-25" value="cst_key" style="text;strokeColor=none;fillColor=none;align=left;verticalAlign=middle;spacingLeft=4;spacingRight=4;overflow=hidden;points=[[0,0.5],[1,0.5]];portConstraint=eastwest;rotatable=0;whiteSpace=wrap;html=1;fontSize=26;" parent="JYrcJPNF48qlftp7YfjU-1" vertex="1">
          <mxGeometry y="70" width="370" height="40" as="geometry" />
        </mxCell>
        <mxCell id="JYrcJPNF48qlftp7YfjU-5" value="&lt;font style=&quot;font-size: 20px;&quot;&gt;&lt;font&gt;Customer &lt;/font&gt;Information&lt;/font&gt;" style="text;html=1;align=center;verticalAlign=middle;whiteSpace=wrap;rounded=0;" parent="JYrcJPNF48qlftp7YfjU-19" vertex="1">
          <mxGeometry x="45" width="280" height="30" as="geometry" />
        </mxCell>
        <mxCell id="JYrcJPNF48qlftp7YfjU-21" value="" style="group" parent="1" vertex="1" connectable="0">
          <mxGeometry x="1057" y="247" width="425" height="100" as="geometry" />
        </mxCell>
        <mxCell id="JYrcJPNF48qlftp7YfjU-22" value="erp.cust.az12" style="swimlane;fontStyle=0;childLayout=stackLayout;horizontal=1;startSize=30;horizontalStack=0;resizeParent=1;resizeParentMax=0;resizeLast=0;collapsible=1;marginBottom=0;whiteSpace=wrap;html=1;rounded=1;fillColor=#fff2cc;strokeColor=#d6b656;fontSize=26;" parent="JYrcJPNF48qlftp7YfjU-21" vertex="1">
          <mxGeometry x="27.5" y="30" width="370" height="70" as="geometry" />
        </mxCell>
        <mxCell id="JYrcJPNF48qlftp7YfjU-23" value="cid" style="text;strokeColor=none;fillColor=none;align=left;verticalAlign=middle;spacingLeft=4;spacingRight=4;overflow=hidden;points=[[0,0.5],[1,0.5]];portConstraint=eastwest;rotatable=0;whiteSpace=wrap;html=1;fontSize=26;" parent="JYrcJPNF48qlftp7YfjU-22" vertex="1">
          <mxGeometry y="30" width="370" height="40" as="geometry" />
        </mxCell>
        <mxCell id="JYrcJPNF48qlftp7YfjU-24" value="&lt;span style=&quot;font-size: 20px;&quot;&gt;Extra Custormer Information (Birtdate)&lt;/span&gt;" style="text;html=1;align=center;verticalAlign=middle;whiteSpace=wrap;rounded=0;" parent="JYrcJPNF48qlftp7YfjU-21" vertex="1">
          <mxGeometry width="425" height="30" as="geometry" />
        </mxCell>
        <mxCell id="JYrcJPNF48qlftp7YfjU-34" value="" style="group" parent="1" vertex="1" connectable="0">
          <mxGeometry x="1057" y="39" width="425" height="100" as="geometry" />
        </mxCell>
        <mxCell id="JYrcJPNF48qlftp7YfjU-35" value="erp.cust.az12" style="swimlane;fontStyle=0;childLayout=stackLayout;horizontal=1;startSize=30;horizontalStack=0;resizeParent=1;resizeParentMax=0;resizeLast=0;collapsible=1;marginBottom=0;whiteSpace=wrap;html=1;rounded=1;fillColor=#fff2cc;strokeColor=#d6b656;fontSize=26;" parent="JYrcJPNF48qlftp7YfjU-34" vertex="1">
          <mxGeometry x="27.5" y="30" width="370" height="70" as="geometry" />
        </mxCell>
        <mxCell id="JYrcJPNF48qlftp7YfjU-36" value="id" style="text;strokeColor=none;fillColor=none;align=left;verticalAlign=middle;spacingLeft=4;spacingRight=4;overflow=hidden;points=[[0,0.5],[1,0.5]];portConstraint=eastwest;rotatable=0;whiteSpace=wrap;html=1;fontSize=26;" parent="JYrcJPNF48qlftp7YfjU-35" vertex="1">
          <mxGeometry y="30" width="370" height="40" as="geometry" />
        </mxCell>
        <mxCell id="JYrcJPNF48qlftp7YfjU-37" value="&lt;span style=&quot;font-size: 20px;&quot;&gt;Product Categories&lt;/span&gt;" style="text;html=1;align=center;verticalAlign=middle;whiteSpace=wrap;rounded=0;" parent="JYrcJPNF48qlftp7YfjU-34" vertex="1">
          <mxGeometry width="425" height="30" as="geometry" />
        </mxCell>
        <mxCell id="JYrcJPNF48qlftp7YfjU-42" value="CRM" style="rounded=1;whiteSpace=wrap;html=1;fillColor=#dae8fc;strokeColor=#6c8ebf;fontSize=35;fontStyle=1" parent="1" vertex="1">
          <mxGeometry x="255" y="-80" width="360" height="60" as="geometry" />
        </mxCell>
        <mxCell id="JYrcJPNF48qlftp7YfjU-44" value="ERP" style="rounded=1;whiteSpace=wrap;html=1;fillColor=#fff2cc;strokeColor=#d6b656;fontSize=35;fontStyle=1" parent="1" vertex="1">
          <mxGeometry x="1119.5" y="-80" width="285" height="60" as="geometry" />
        </mxCell>
        <mxCell id="2xPNYRq2WgILgbuR769u-1" value="&lt;font style=&quot;font-size: 20px;&quot;&gt;&lt;b style=&quot;&quot;&gt;PRODUCT&lt;/b&gt;&lt;/font&gt;" style="text;html=1;strokeColor=#b85450;fillColor=#f8cecc;align=center;verticalAlign=middle;whiteSpace=wrap;overflow=hidden;" parent="1" vertex="1">
          <mxGeometry x="497.5" y="140" width="370" height="40" as="geometry" />
        </mxCell>
        <mxCell id="2xPNYRq2WgILgbuR769u-2" value="&lt;font style=&quot;font-size: 20px;&quot;&gt;&lt;b style=&quot;&quot;&gt;PRODUCT&lt;/b&gt;&lt;/font&gt;" style="text;html=1;strokeColor=#b85450;fillColor=#f8cecc;align=center;verticalAlign=middle;whiteSpace=wrap;overflow=hidden;" parent="1" vertex="1">
          <mxGeometry x="1084.5" y="139" width="370" height="40" as="geometry" />
        </mxCell>
        <mxCell id="2xPNYRq2WgILgbuR769u-3" value="&lt;font style=&quot;font-size: 20px;&quot;&gt;&lt;b style=&quot;&quot;&gt;CUSTOMER&lt;/b&gt;&lt;/font&gt;" style="text;html=1;strokeColor=#82b366;fillColor=#d5e8d4;align=center;verticalAlign=middle;whiteSpace=wrap;overflow=hidden;" parent="1" vertex="1">
          <mxGeometry x="497.5" y="431" width="370" height="40" as="geometry" />
        </mxCell>
        <mxCell id="JYrcJPNF48qlftp7YfjU-27" value="" style="group" parent="1" vertex="1" connectable="0">
          <mxGeometry x="1057" y="417" width="425" height="100" as="geometry" />
        </mxCell>
        <mxCell id="JYrcJPNF48qlftp7YfjU-28" value="erp_loc_a101" style="swimlane;fontStyle=0;childLayout=stackLayout;horizontal=1;startSize=30;horizontalStack=0;resizeParent=1;resizeParentMax=0;resizeLast=0;collapsible=1;marginBottom=0;whiteSpace=wrap;html=1;rounded=1;fillColor=#fff2cc;strokeColor=#d6b656;fontSize=26;" parent="JYrcJPNF48qlftp7YfjU-27" vertex="1">
          <mxGeometry x="27.5" y="30" width="370" height="70" as="geometry" />
        </mxCell>
        <mxCell id="JYrcJPNF48qlftp7YfjU-32" value="cid" style="text;strokeColor=none;fillColor=none;align=left;verticalAlign=middle;spacingLeft=4;spacingRight=4;overflow=hidden;points=[[0,0.5],[1,0.5]];portConstraint=eastwest;rotatable=0;whiteSpace=wrap;html=1;fontSize=26;" parent="JYrcJPNF48qlftp7YfjU-28" vertex="1">
          <mxGeometry y="30" width="370" height="40" as="geometry" />
        </mxCell>
        <mxCell id="JYrcJPNF48qlftp7YfjU-30" value="&lt;span style=&quot;font-size: 20px;&quot;&gt;Location of Customers (Country)&lt;/span&gt;" style="text;html=1;align=center;verticalAlign=middle;whiteSpace=wrap;rounded=0;" parent="JYrcJPNF48qlftp7YfjU-27" vertex="1">
          <mxGeometry width="425" height="30" as="geometry" />
        </mxCell>
        <mxCell id="2xPNYRq2WgILgbuR769u-4" value="&lt;font style=&quot;font-size: 20px;&quot;&gt;&lt;b style=&quot;&quot;&gt;CUSTOMER&lt;/b&gt;&lt;/font&gt;" style="text;html=1;strokeColor=#82b366;fillColor=#d5e8d4;align=center;verticalAlign=middle;whiteSpace=wrap;overflow=hidden;" parent="1" vertex="1">
          <mxGeometry x="1084.5" y="347" width="370" height="40" as="geometry" />
        </mxCell>
        <mxCell id="2xPNYRq2WgILgbuR769u-5" value="&lt;font style=&quot;font-size: 20px;&quot;&gt;&lt;b style=&quot;&quot;&gt;CUSTOMER&lt;/b&gt;&lt;/font&gt;" style="text;html=1;strokeColor=#82b366;fillColor=#d5e8d4;align=center;verticalAlign=middle;whiteSpace=wrap;overflow=hidden;" parent="1" vertex="1">
          <mxGeometry x="1084.5" y="517" width="370" height="40" as="geometry" />
        </mxCell>
        <mxCell id="2xPNYRq2WgILgbuR769u-6" value="&lt;font style=&quot;font-size: 20px;&quot;&gt;&lt;b style=&quot;&quot;&gt;SALES&lt;/b&gt;&lt;/font&gt;" style="text;html=1;strokeColor=#9673a6;fillColor=#e1d5e7;align=center;verticalAlign=middle;whiteSpace=wrap;overflow=hidden;" parent="1" vertex="1">
          <mxGeometry x="7.5" y="311" width="370" height="40" as="geometry" />
        </mxCell>
        <mxCell id="8f3cOLDm90qf2U5WND3x-2" value="&lt;font style=&quot;font-size: 18px;&quot;&gt;Customer Relationship Management&lt;/font&gt;" style="text;html=1;strokeColor=none;fillColor=none;align=center;verticalAlign=middle;whiteSpace=wrap;rounded=0;fontSize=18;" parent="1" vertex="1">
          <mxGeometry x="255" y="-110" width="360" height="30" as="geometry" />
        </mxCell>
        <mxCell id="8f3cOLDm90qf2U5WND3x-3" value="&lt;font style=&quot;font-size: 18px;&quot;&gt;Enterprise Resource Planning&lt;/font&gt;" style="text;html=1;strokeColor=none;fillColor=none;align=center;verticalAlign=middle;whiteSpace=wrap;rounded=0;fontSize=18;" parent="1" vertex="1">
          <mxGeometry x="1123.25" y="-110" width="277.5" height="30" as="geometry" />
        </mxCell>
        <mxCell id="8f3cOLDm90qf2U5WND3x-7" value="" style="endArrow=none;html=1;rounded=0;exitX=1;exitY=0.5;exitDx=0;exitDy=0;entryX=0;entryY=0.5;entryDx=0;entryDy=0;" parent="1" source="JYrcJPNF48qlftp7YfjU-7" target="JYrcJPNF48qlftp7YfjU-36" edge="1">
          <mxGeometry width="50" height="50" relative="1" as="geometry">
            <mxPoint x="900" y="-90" as="sourcePoint" />
            <mxPoint x="950" y="-140" as="targetPoint" />
          </mxGeometry>
        </mxCell>
        <mxCell id="8f3cOLDm90qf2U5WND3x-9" value="" style="endArrow=none;html=1;rounded=0;entryX=0;entryY=0.5;entryDx=0;entryDy=0;edgeStyle=orthogonalEdgeStyle;" parent="1" source="JYrcJPNF48qlftp7YfjU-25" target="JYrcJPNF48qlftp7YfjU-32" edge="1">
          <mxGeometry width="50" height="50" relative="1" as="geometry">
            <mxPoint x="870" y="340" as="sourcePoint" />
            <mxPoint x="1084.5" y="496" as="targetPoint" />
            <Array as="points">
              <mxPoint x="970" y="410" />
              <mxPoint x="970" y="497" />
            </Array>
          </mxGeometry>
        </mxCell>
        <mxCell id="8f3cOLDm90qf2U5WND3x-10" value="" style="endArrow=none;html=1;rounded=0;exitX=1;exitY=0.5;exitDx=0;exitDy=0;entryX=0;entryY=0.5;entryDx=0;entryDy=0;edgeStyle=orthogonalEdgeStyle;" parent="1" source="JYrcJPNF48qlftp7YfjU-16" target="JYrcJPNF48qlftp7YfjU-2" edge="1">
          <mxGeometry width="50" height="50" relative="1" as="geometry">
            <mxPoint x="380" y="471" as="sourcePoint" />
            <mxPoint x="430" y="421" as="targetPoint" />
          </mxGeometry>
        </mxCell>
        <mxCell id="8f3cOLDm90qf2U5WND3x-11" value="" style="endArrow=none;html=1;rounded=0;exitX=1;exitY=0.5;exitDx=0;exitDy=0;entryX=0;entryY=0.5;entryDx=0;entryDy=0;edgeStyle=orthogonalEdgeStyle;" parent="1" source="JYrcJPNF48qlftp7YfjU-16" target="JYrcJPNF48qlftp7YfjU-7" edge="1">
          <mxGeometry width="50" height="50" relative="1" as="geometry">
            <mxPoint x="388" y="301" as="sourcePoint" />
            <mxPoint x="508" y="381" as="targetPoint" />
          </mxGeometry>
        </mxCell>
        <mxCell id="8f3cOLDm90qf2U5WND3x-12" value="" style="endArrow=none;html=1;rounded=0;entryX=0;entryY=0.5;entryDx=0;entryDy=0;edgeStyle=orthogonalEdgeStyle;exitX=1;exitY=0.5;exitDx=0;exitDy=0;" parent="1" source="JYrcJPNF48qlftp7YfjU-25" target="JYrcJPNF48qlftp7YfjU-23" edge="1">
          <mxGeometry width="50" height="50" relative="1" as="geometry">
            <mxPoint x="878" y="420" as="sourcePoint" />
            <mxPoint x="1095" y="506" as="targetPoint" />
            <Array as="points">
              <mxPoint x="867" y="410" />
              <mxPoint x="970" y="410" />
              <mxPoint x="970" y="327" />
            </Array>
          </mxGeometry>
        </mxCell>
        <mxCell id="JYrcJPNF48qlftp7YfjU-6" value="crm_prd_info" style="swimlane;fontStyle=0;childLayout=stackLayout;horizontal=1;startSize=30;horizontalStack=0;resizeParent=1;resizeParentMax=0;resizeLast=0;collapsible=1;marginBottom=0;whiteSpace=wrap;html=1;rounded=1;fillColor=#dae8fc;strokeColor=#6c8ebf;fontSize=26;" parent="1" vertex="1">
          <mxGeometry x="497.5" y="70" width="370" height="70" as="geometry" />
        </mxCell>
        <mxCell id="JYrcJPNF48qlftp7YfjU-7" value="prd_key" style="text;strokeColor=none;fillColor=none;align=left;verticalAlign=middle;spacingLeft=4;spacingRight=4;overflow=hidden;points=[[0,0.5],[1,0.5]];portConstraint=eastwest;rotatable=0;whiteSpace=wrap;html=1;fontSize=26;" parent="JYrcJPNF48qlftp7YfjU-6" vertex="1">
          <mxGeometry y="30" width="370" height="40" as="geometry" />
        </mxCell>
        <mxCell id="JYrcJPNF48qlftp7YfjU-8" value="&lt;span style=&quot;font-size: 20px;&quot;&gt;Current &amp;amp; History Product Information&lt;/span&gt;" style="text;html=1;align=center;verticalAlign=middle;whiteSpace=wrap;rounded=0;" parent="1" vertex="1">
          <mxGeometry x="470" y="39" width="425" height="30" as="geometry" />
        </mxCell>
        <mxCell id="8f3cOLDm90qf2U5WND3x-14" style="edgeStyle=none;shape=link;rounded=0;orthogonalLoop=1;jettySize=auto;html=1;exitX=0.75;exitY=0;exitDx=0;exitDy=0;" parent="1" source="JYrcJPNF48qlftp7YfjU-8" target="JYrcJPNF48qlftp7YfjU-8" edge="1">
          <mxGeometry relative="1" as="geometry" />
        </mxCell>
        <mxCell id="8f3cOLDm90qf2U5WND3x-1" value="&lt;div style=&quot;&quot;&gt;&lt;b style=&quot;background-color: transparent; color: light-dark(rgb(0, 0, 0), rgb(255, 255, 255));&quot;&gt;Data Integration&amp;nbsp;&lt;/b&gt;&lt;span style=&quot;font-size: 20px; background-color: transparent; color: light-dark(rgb(0, 0, 0), rgb(255, 255, 255));&quot;&gt;(how to tables are related)&lt;/span&gt;&lt;/div&gt;" style="text;html=1;strokeColor=none;fillColor=none;align=center;verticalAlign=middle;whiteSpace=wrap;rounded=1;fontSize=38;fontFamily=Helvetica;" parent="1" vertex="1">
          <mxGeometry x="-60" y="-190" width="1580" height="54" as="geometry" />
        </mxCell>
      </root>
    </mxGraphModel>
  </diagram>
</mxfile>
